<svg id="Layer_1" height="512" viewBox="0 0 128 128" width="512" xmlns="http://www.w3.org/2000/svg" data-name="Layer 1"><path d="m112.654 4.75h-97.308a1.75 1.75 0 0 0 -1.746 1.75v11.269a1.75 1.75 0 0 0 .453 1.175l41.457 45.735v56.821a1.75 1.75 0 0 0 2.722 1.455l13.481-9.01a1.75 1.75 0 0 0 .777-1.455v-47.811l41.461-45.735a1.75 1.75 0 0 0 .453-1.175v-11.269a1.75 1.75 0 0 0 -1.75-1.75zm-53.644 113.476v-52.476h9.98v45.805zm51.89-101.132-40.932 45.156h-11.936l-40.932-45.156v-8.844h93.8z"/><path d="m74.635 48.056a1.748 1.748 0 0 0 1.3-.575l11.9-13.124a1.75 1.75 0 0 0 -2.594-2.351l-11.902 13.124a1.751 1.751 0 0 0 1.3 2.926z"/></svg>